<?xml version="1.0" encoding="UTF-8" standalone="no"?>
<!-- Generator: Adobe Illustrator 18.0.0, SVG Export Plug-In . SVG Version: 6.00 Build 0)  -->

<svg
   xmlns:dc="http://purl.org/dc/elements/1.1/"
   xmlns:cc="http://creativecommons.org/ns#"
   xmlns:rdf="http://www.w3.org/1999/02/22-rdf-syntax-ns#"
   xmlns:svg="http://www.w3.org/2000/svg"
   xmlns="http://www.w3.org/2000/svg"
   xmlns:sodipodi="http://sodipodi.sourceforge.net/DTD/sodipodi-0.dtd"
   xmlns:inkscape="http://www.inkscape.org/namespaces/inkscape"
   version="1.1"
   id="Layer_1"
   x="0px"
   y="0px"
   width="38px"
   height="44px"
   viewBox="0 0 38 44"
   enable-background="new 0 0 38 44"
   xml:space="preserve"
   inkscape:version="0.91 r13725"
   sodipodi:docname="cd-arrow-top.svg"><metadata
     id="metadata13"><rdf:RDF><cc:Work
         rdf:about=""><dc:format>image/svg+xml</dc:format><dc:type
           rdf:resource="http://purl.org/dc/dcmitype/StillImage" /></cc:Work></rdf:RDF></metadata><defs
     id="defs11" /><sodipodi:namedview
     pagecolor="#ffffff"
     bordercolor="#666666"
     borderopacity="1"
     objecttolerance="10"
     gridtolerance="10"
     guidetolerance="10"
     inkscape:pageopacity="0"
     inkscape:pageshadow="2"
     inkscape:window-width="640"
     inkscape:window-height="480"
     id="namedview9"
     showgrid="false"
     inkscape:zoom="5.3636364"
     inkscape:cx="19"
     inkscape:cy="22"
     inkscape:window-x="0"
     inkscape:window-y="0"
     inkscape:window-maximized="0"
     inkscape:current-layer="Layer_1" /><g
     id="g3"
     transform="matrix(1,0,0,-1,0,44.003425)"><path
       d="m 37.3,22.2 c -0.5,-0.3 -1.2,-0.1 -1.4,0.4 L 19,41.5 2.1,22.6 C 1.8,22.1 1.2,22 0.7,22.2 0.2,22.5 0,23.1 0.3,23.5 L 18,43.4 c 0.2,0.3 0.6,0.5 1,0.5 0.4,0 0.8,-0.2 1,-0.5 L 37.7,23.6 c 0.3,-0.5 0.1,-1.1 -0.4,-1.4 z"
       id="path5"
       inkscape:connector-curvature="0"
       style="clip-rule:evenodd;fill:#686470;fill-rule:evenodd" /><path
       d="m 18,21.4 c 0.2,0.3 0.6,0.5 1,0.5 0.4,0 0.8,-0.2 1,-0.5 L 37.7,1.6 C 38,1.1 37.8,0.5 37.3,0.3 36.8,0 36.1,0.2 35.9,0.7 L 19,19.5 2.1,0.6 C 1.8,0.1 1.2,0 0.7,0.2 0.2,0.5 0,1.1 0.3,1.6 L 18,21.4 Z"
       id="path7"
       inkscape:connector-curvature="0"
       style="clip-rule:evenodd;fill:#4b4854;fill-rule:evenodd" /></g></svg>